<?xml version="1.0" standalone="no"?>
<!DOCTYPE svg PUBLIC "-//W3C//DTD SVG 20010904//EN"
 "http://www.w3.org/TR/2001/REC-SVG-20010904/DTD/svg10.dtd">
<svg version="1.0" xmlns="http://www.w3.org/2000/svg"
 width="512.000000pt" height="512.000000pt" viewBox="0 0 512.000000 512.000000"
 preserveAspectRatio="xMidYMid meet">

<g transform="translate(0.000000,512.000000) scale(0.100000,-0.100000)"
fill="#000000" stroke="none">
<path d="M1225 4894 c-193 -19 -308 -50 -450 -121 -377 -188 -639 -556 -741
-1037 -31 -149 -44 -464 -25 -611 23 -175 66 -346 123 -497 l30 -78 457 0 458
0 197 296 c109 163 201 292 206 288 4 -5 139 -207 300 -449 161 -242 296 -444
301 -449 4 -5 155 286 335 645 l327 654 339 -679 340 -679 186 186 187 187
582 0 582 0 20 56 c63 167 102 319 127 484 25 170 15 480 -20 646 -100 475
-360 841 -732 1031 -192 99 -326 126 -609 127 -348 1 -565 -65 -803 -244 -90
-67 -253 -226 -332 -324 -25 -30 -47 -55 -50 -55 -3 0 -25 25 -50 55 -79 98
-242 257 -332 324 -158 119 -323 191 -513 225 -87 16 -358 27 -440 19z"/>
<path d="M2440 2210 c-168 -335 -308 -610 -311 -610 -3 0 -147 211 -319 470
-255 382 -317 470 -335 470 -17 0 -44 -33 -125 -155 l-103 -155 -464 0 -465 0
27 -47 c15 -27 74 -118 130 -203 386 -581 1025 -1194 1918 -1839 l168 -121
147 107 c536 388 918 708 1282 1073 339 339 556 607 752 930 l58 95 -437 3
-438 2 -295 -295 -295 -295 -295 590 -295 590 -305 -610z"/>
</g>
</svg>
